<?xml version="1.0" standalone="no"?><!DOCTYPE svg PUBLIC "-//W3C//DTD SVG 1.1//EN" "http://www.w3.org/Graphics/SVG/1.1/DTD/svg11.dtd"><svg t="1772979876071" class="icon" viewBox="0 0 1024 1024" version="1.1" xmlns="http://www.w3.org/2000/svg" p-id="7056" xmlns:xlink="http://www.w3.org/1999/xlink" width="256" height="256"><path d="M146.285714 0h731.428572a146.285714 146.285714 0 0 1 146.285714 146.285714v731.428572a146.285714 146.285714 0 0 1-146.285714 146.285714H146.285714a146.285714 146.285714 0 0 1-146.285714-146.285714V146.285714a146.285714 146.285714 0 0 1 146.285714-146.285714z" fill="#35BA2E" opacity=".2" p-id="7057"></path><path d="M694.857143 731.428571H329.142857a36.571429 36.571429 0 0 0 0 73.142858h365.714286a36.571429 36.571429 0 0 0 0-73.142858z m36.571428-512H292.571429a73.142857 73.142857 0 0 0-73.142858 73.142858v292.571428a73.142857 73.142857 0 0 0 73.142858 73.142857h438.857142a73.142857 73.142857 0 0 0 73.142858-73.142857V292.571429a73.142857 73.142857 0 0 0-73.142858-73.142858z m-329.142857 292.571429a36.571429 36.571429 0 0 1-73.142857 0v-146.285714a36.571429 36.571429 0 0 1 73.142857 0v146.285714z m146.285715 0a36.571429 36.571429 0 0 1-73.142858 0v-73.142857a36.571429 36.571429 0 0 1 73.142858 0v73.142857z m146.285714 0a36.571429 36.571429 0 0 1-73.142857 0v-73.142857a36.571429 36.571429 0 0 1 73.142857 0v73.142857z" fill="#35BA2E" p-id="7058"></path></svg>