<?xml version="1.0" standalone="no"?><!DOCTYPE svg PUBLIC "-//W3C//DTD SVG 1.1//EN" "http://www.w3.org/Graphics/SVG/1.1/DTD/svg11.dtd"><svg t="1771581590064" class="icon" viewBox="0 0 1024 1024" version="1.1" xmlns="http://www.w3.org/2000/svg" p-id="13634" xmlns:xlink="http://www.w3.org/1999/xlink" width="256" height="256"><path d="M503.720229 507.231086m-497.371429 0a497.371429 497.371429 0 1 0 994.742857 0 497.371429 497.371429 0 1 0-994.742857 0Z" fill="#62D7FF" p-id="13635"></path><path d="M503.720229 1004.602514c274.724571 0 497.371429-222.646857 497.371428-497.371428 0-274.666057-222.646857-497.371429-497.371428-497.371429" fill="#7AE9FF" p-id="13636"></path><path d="M537.980343 702.112914c13.019429-100.498286 38.882743-173.787429 61.820343-222.354285-0.643657-2.896457-1.345829-5.792914-1.872457-8.630858-12.668343 6.436571-25.658514 11.117714-38.356115 15.213715-21.474743 50.322286-43.359086 120.0128-55.208228 210.241828a1264.464457 1264.464457 0 0 0-24.897829-3.510857c-12.112457-100.615314-38.619429-182.213486-69.339428-246.696228a1315.986286 1315.986286 0 0 1-22.9376-12.551315c1.755429 16.559543 1.521371 31.978057 0.731428 46.460343 24.868571 56.700343 45.8752 126.098286 56.641829 209.598172-162.084571-6.3488-169.896229 91.808914-169.896229 91.808914h533.533257c-98.157714-43.593143-201.435429-67.349943-270.218971-79.579429z" fill="#FFFFFF" p-id="13637"></path><path d="M482.801371 487.979886c-6.144-4.242286-12.434286-8.221257-18.870857-11.995429a113.429943 113.429943 0 0 0-11.029943 43.768686 84.728686 84.728686 0 0 1 29.9008-31.773257z" fill="#FFFFFF" p-id="13638"></path><path d="M389.383314 619.900343c-71.124114-71.153371 7.665371-141.984914-49.795657-253.952 32.592457 43.885714 163.722971 86.162286 183.676343 125.893486-15.857371-106.437486-100.732343-130.896457-174.343314-147.397486 125.513143 24.488229 149.884343-42.481371 214.6304-15.1552-44.617143-47.484343-146.753829-53.248-222.529829-1.462857 43.710171-44.617143 121.358629-49.737143 151.552-103.102172-73.640229-13.487543-145.876114 44.500114-160.621714 101.697829 4.3008-36.2496-13.165714-91.662629 21.591771-111.352686-54.564571 1.784686-78.0288 80.047543-50.702628 115.9168-51.902171-24.868571-99.240229 33.9968-98.976915 75.190857 22.030629-27.501714 57.870629-46.167771 92.277029-56.5248-65.653029 35.547429-109.246171 121.768229-97.250743 220.013715 2.399086-58.309486 67.086629-105.442743 105.501257-195.642515-23.288686 71.036343-14.218971 201.581714 84.992 245.877029z" fill="#FFFFFF" p-id="13639"></path><path d="M611.035429 375.1936a155.823543 155.823543 0 0 0-52.311772-27.794286c-14.394514-1.784686-35.957029-0.438857-64.131657 10.825143-5.705143 2.340571-11.995429 4.213029-18.666057 6.319543 6.524343 4.534857 12.814629 9.537829 18.8416 15.067429 27.501714 5.207771 62.112914 15.008914 103.336228 10.825142-15.711086 3.832686-45.056 11.117714-73.201371 26.243658 8.630857 14.628571 15.125943 30.427429 19.338971 46.8992 28.320914-8.747886 56.9344-18.900114 78.409143-44.412343-13.575314 63.019886 53.130971 164.191086 38.912 230.019657 32.621714-71.855543 18.783086-183.032686-15.798857-238.357943 59.8016 74.839771 113.517714 75.512686 142.5408 111.8208 0.877714-75.044571-60.679314-116.560457-128.2048-125.249829 33.440914 1.199543 80.457143-5.997714 100.732343 21.9136-12.756114-47.396571-66.091886-84.553143-118.520686-38.912 16.822857-48.186514-45.348571-96.899657-90.258285-85.372342 35.810743 10.795886 30.134857 45.641143 58.9824 80.164571z" fill="#FFFFFF" p-id="13640"></path></svg>